HIERARCHY
ROOT Hips
{
	OFFSET 0.00000 0.00000 0.00000
	CHANNELS 6 Xposition Yposition Zposition Zrotation Yrotation Xrotation 
	JOINT LHipJoint
	{
		OFFSET 0 0 0
		CHANNELS 3 Zrotation Yrotation Xrotation
		JOINT LeftHip
		{
			OFFSET 1.57338 -1.94743 0.52196
			CHANNELS 3 Zrotation Yrotation Xrotation
			JOINT LeftKnee
			{
				OFFSET 2.60333 -7.15259 0.00000
				CHANNELS 3 Zrotation Yrotation Xrotation
				JOINT LeftAnkle
				{
					OFFSET 2.77855 -7.63400 0.00000
					CHANNELS 3 Zrotation Yrotation Xrotation
					JOINT LeftToe
					{
						OFFSET 0.19847 -0.54529 2.28466
						CHANNELS 3 Zrotation Yrotation Xrotation
						End Site
						{
							OFFSET 0.00000 -0.00000 1.17993
						}
					}
				}
			}
		}
	}
	JOINT RHipJoint
	{
		OFFSET 0 0 0
		CHANNELS 3 Zrotation Yrotation Xrotation
		JOINT RightHip
		{
			OFFSET -1.61527 -1.94743 0.52196
			CHANNELS 3 Zrotation Yrotation Xrotation
			JOINT RightKnee
			{
				OFFSET -2.53829 -6.97390 0.00000
				CHANNELS 3 Zrotation Yrotation Xrotation
				JOINT RightAnkle
				{
					OFFSET -2.80762 -7.71387 0.00000
					CHANNELS 3 Zrotation Yrotation Xrotation
					JOINT RightToe
					{
						OFFSET -0.30536 -0.83898 2.28801
						CHANNELS 3 Zrotation Yrotation Xrotation
						End Site
						{
							OFFSET -0.00000 -0.00000 1.21323
						}
					}
				}
			}
		}
	}
	JOINT lowerback
	{
		OFFSET 0 0 0
		CHANNELS 3 Zrotation Yrotation Xrotation
		JOINT Chest
		{
			OFFSET -0.04381 1.99497 -0.19778
			CHANNELS 3 Zrotation Yrotation Xrotation
			JOINT Chest2
			{
				OFFSET -0.01959 2.01295 -0.04372
				CHANNELS 3 Zrotation Yrotation Xrotation
				JOINT lowerneck
				{
					OFFSET 0 0 0
					CHANNELS 3 Zrotation Yrotation Xrotation
					JOINT Neck
					{
						OFFSET -0.05459 1.76913 0.09708
						CHANNELS 3 Zrotation Yrotation Xrotation
						JOINT Head
						{
							OFFSET 0.09461 1.77368 -0.11172
							CHANNELS 3 Zrotation Yrotation Xrotation
							End Site
							{
								OFFSET 0.03812 1.78157 -0.04834
							}
						}
					}
				}
				JOINT LeftCollar
				{
					OFFSET 0 0 0
					CHANNELS 3 Zrotation Yrotation Xrotation
					JOINT LeftShoulder
					{
						OFFSET 3.50922 1.24034 -0.28866
CHANNELS 3 Zrotation Xrotation Yrotation
						JOINT LeftElbow
						{
OFFSET 0 -5.401880 0.000000
CHANNELS 3 Zrotation Xrotation Yrotation
							JOINT LeftWrist
							{
OFFSET 0 -3.685590 0.000000
CHANNELS 3 Zrotation Xrotation Yrotation
								JOINT lhand
								{
									OFFSET 0 0 0
CHANNELS 3 Zrotation Xrotation Yrotation
									JOINT LFingers
									{
OFFSET 0 -0.617530 0.000000
CHANNELS 3 Zrotation Xrotation Yrotation
										End Site
										{
OFFSET 0 -0.497870 0.000000
										}
									}
								}
								JOINT LThumb
								{
OFFSET 0 0.000000 0.000000
CHANNELS 3 Zrotation Xrotation Yrotation
									End Site
									{
OFFSET 0 -0.505470 0.505470
									}
								}
							}
						}
					}
				}
				JOINT RightCollar
				{
					OFFSET 0 0 0
					CHANNELS 3 Zrotation Yrotation Xrotation
					JOINT RightShoulder
					{
						OFFSET -2.95373 1.39649 -0.27346
CHANNELS 3 Zrotation Xrotation Yrotation
						JOINT RightElbow
						{
OFFSET 0 -6.106700 -0.000000
CHANNELS 3 Zrotation Xrotation Yrotation
							JOINT RightWrist
							{
OFFSET 0 -3.630520 0.000000
CHANNELS 3 Zrotation Xrotation Yrotation
								JOINT rhand
								{
									OFFSET 0 0 0
CHANNELS 3 Zrotation Xrotation Yrotation
									JOINT RFingers
									{
OFFSET 0 -0.583850 0.000000
CHANNELS 3 Zrotation Xrotation Yrotation
										End Site
										{
OFFSET 0 -0.470710 0.000000
										}
									}
								}
								JOINT RThumb
								{
OFFSET 0 0.000000 0.000000
CHANNELS 3 Zrotation Xrotation Yrotation
									End Site
									{
OFFSET 0 -0.477900 0.477900
									}
								}
							}
						}
					}
				}
			}
		}
	}
}
MOTION
Frames: 9
Frame Time: 0.008333333333333333
-0.660000 18.904100 -11.895900 1.189500 -4.695800 1.154200 0.000000 0.000000 0.000000 -20.977400 -7.041000 4.281900 0.310900 3.584400 9.910200 -0.034900 13.136800 -18.244100 0.043700 -1.349200 -3.710200 0.000000 0.000000 0.000000 19.651600 21.845700 5.971100 -0.709000 -5.381600 15.000100 -0.181000 -11.295600 -18.436100 -0.048800 1.425400 -3.920100 -2.320100 0.293400 3.741900 -1.054500 0.266100 -0.030500 0.203600 0.151700 -2.134900 -9.286700 -6.286100 -7.692200 8.551200 -8.504300 12.339100 3.549300 -4.035400 5.750200 0.000000 -0.000000 0.000000 2.222300 2.738000 -7.058300 11.071000 -18.397000 1.798300 19.679700 14.461400 -23.595500 0.000000 0.000000 0.000000 -7.125000 0.000000 0.000000 -10.136900 54.579900 2.404300 0.000000 -0.000000 0.000000 -5.068300 1.648000 20.455600 -13.180400 -21.550900 -2.519200 -20.661300 20.794600 0.987100 0.000000 0.000000 0.000000 7.125000 0.000000 -0.000000 4.704100 31.014900 1.612500
-0.661342 18.904100 -11.897913 1.228984 -4.644068 1.171537 0.000000 0.000000 0.000000 -21.006706 -7.072151 4.297224 0.305307 3.552410 9.820606 -0.043904 13.162023 -18.167145 0.043364 -1.344223 -3.696442 0.000000 0.000000 0.000000 19.610606 21.853586 5.917019 -0.714928 -5.403411 15.062794 -0.182510 -11.319313 -18.483190 -0.046451 1.390110 -3.822844 -2.371161 0.285570 3.786082 -1.058974 0.251783 -0.034303 0.228208 0.145324 -2.163590 -9.240672 -6.196002 -7.744268 8.525586 -8.383331 12.405429 3.543428 -3.974440 5.765356 0.000000 0.000000 0.000000 2.232870 2.742474 -7.091520 11.070217 -18.395770 1.798020 19.607107 14.566430 -23.819374 0.000000 0.000000 0.000000 -7.125000 0.000000 0.000000 -10.307700 54.792645 2.499823 0.000000 0.000000 0.000000 -5.085246 1.697215 20.523607 -13.217032 -21.604366 -2.532678 -20.717394 20.739960 1.030779 0.000000 0.000000 0.000000 7.125000 0.000000 0.000000 4.661987 31.062214 1.592758
-0.662578 18.903958 -11.899488 1.260610 -4.599448 1.186539 0.000000 0.000000 0.000000 -21.029243 -7.099568 4.303788 0.301113 3.528433 9.753461 -0.051486 13.183405 -18.102411 0.043076 -1.339944 -3.684628 0.000000 0.000000 0.000000 19.580042 21.868595 5.875052 -0.719967 -5.421987 15.116171 -0.183344 -11.347530 -18.527815 -0.044564 1.361802 -3.744837 -2.411424 0.279542 3.829126 -1.061670 0.240417 -0.037158 0.248430 0.140312 -2.190680 -9.189809 -6.107410 -7.812704 8.492634 -8.263760 12.488684 3.533845 -3.913907 5.788276 0.000000 0.000000 0.000000 2.241070 2.748726 -7.126898 11.070323 -18.395914 1.798025 19.529643 14.643831 -24.005780 0.000000 0.000000 0.000000 -7.125000 0.000000 0.000000 -10.467523 54.966404 2.583006 0.000000 0.000000 0.000000 -5.102772 1.745909 20.590475 -13.254659 -21.659254 -2.546536 -20.754856 20.691187 1.082446 0.000000 0.000000 0.000000 7.125000 0.000000 0.000000 4.635177 31.117777 1.577319
-0.663417 18.903287 -11.899432 1.263015 -4.581272 1.192859 0.000000 0.000000 0.000000 -21.026614 -7.113103 4.277782 0.302120 3.534249 9.769792 -0.053779 13.190508 -18.083116 0.042964 -1.338267 -3.680042 0.000000 0.000000 0.000000 19.588264 21.910092 5.878128 -0.721701 -5.428530 15.134906 -0.181667 -11.392495 -18.563272 -0.044397 1.359453 -3.738405 -2.411536 0.280213 3.867939 -1.057755 0.240026 -0.036487 0.252345 0.140368 -2.211821 -9.120963 -6.024415 -7.942007 8.432401 -8.149391 12.634876 3.510468 -3.854960 5.840064 0.000000 0.000000 0.000000 2.240454 2.761589 -7.170297 11.073735 -18.401171 1.799088 19.434065 14.618496 -24.052870 0.000000 0.000000 0.000000 -7.125000 0.000000 0.000000 -10.586535 54.995207 2.620309 0.000000 0.000000 0.000000 -5.122458 1.792664 20.653113 -13.295989 -21.719431 -2.561804 -20.723033 20.664230 1.163819 0.000000 0.000000 0.000000 7.125000 0.000000 0.000000 4.665265 31.204016 1.577878
-0.664635 18.902924 -11.899898 1.248138 -4.560037 1.212928 0.000000 0.000000 0.000000 -21.000066 -7.128936 4.245637 0.302463 3.536201 9.775288 -0.055764 13.193320 -18.061712 0.042995 -1.338817 -3.681596 0.000000 0.000000 0.000000 19.611609 21.953652 5.859110 -0.724004 -5.437065 15.159378 -0.179562 -11.437602 -18.593870 -0.044561 1.362296 -3.746269 -2.403706 0.277423 3.898242 -1.046421 0.235746 -0.041078 0.259673 0.138456 -2.233459 -9.083931 -5.934830 -8.056397 8.402678 -8.027079 12.775165 3.503211 -3.792102 5.889386 0.000000 0.000000 0.000000 2.237445 2.779312 -7.227469 11.082219 -18.414180 1.801786 19.399767 14.601885 -24.128764 0.000000 0.000000 0.000000 -7.125000 0.000000 0.000000 -10.655408 55.065186 2.655787 0.000000 0.000000 0.000000 -5.135128 1.818391 20.684838 -13.317406 -21.750591 -2.569723 -20.703681 20.681272 1.252826 0.000000 0.000000 0.000000 7.125000 0.000000 0.000000 4.685966 31.298576 1.574265
-0.666369 18.902980 -11.901072 1.209772 -4.534647 1.251685 0.000000 0.000000 0.000000 -20.941008 -7.147895 4.205146 0.301904 3.532902 9.766061 -0.057330 13.190300 -18.037439 0.043219 -1.342396 -3.691495 0.000000 0.000000 0.000000 19.655512 22.000016 5.810062 -0.727080 -5.448306 15.191648 -0.176878 -11.482903 -18.617862 -0.045176 1.372195 -3.773561 -2.385082 0.269929 3.916977 -1.025001 0.226183 -0.052823 0.271641 0.133870 -2.255773 -9.090139 -5.836287 -8.150522 8.414423 -7.893974 12.907431 3.517864 -3.723928 5.935358 0.000000 0.000000 0.000000 2.231181 2.803640 -7.303362 11.097599 -18.437725 1.806708 19.448758 14.597131 -24.243805 0.000000 0.000000 0.000000 -7.125000 0.000000 0.000000 -10.656135 55.191133 2.688783 0.000000 0.000000 0.000000 -5.138259 1.815539 20.674548 -13.311757 -21.742314 -2.567654 -20.701276 20.758115 1.352207 0.000000 0.000000 0.000000 7.125000 0.000000 0.000000 4.693908 31.404445 1.564981
-0.667747 18.903036 -11.903278 1.195302 -4.490019 1.283900 0.000000 0.000000 0.000000 -20.907765 -7.162445 4.151925 0.302411 3.535860 9.774328 -0.058469 13.164629 -17.985075 0.046749 -1.394230 -3.834279 0.000000 0.000000 0.000000 19.675234 22.038484 5.771647 -0.729516 -5.457201 15.217233 -0.173482 -11.540791 -18.649251 -0.045116 1.371142 -3.770628 -2.393270 0.254363 3.946700 -1.007955 0.204671 -0.044334 0.294918 0.123346 -2.263295 -9.106481 -5.743790 -8.307693 8.430115 -7.764283 13.059789 3.533797 -3.655967 5.999429 0.000000 0.000000 0.000000 2.214819 2.779857 -7.329649 11.105831 -18.450318 1.809318 19.558805 14.665878 -24.299604 0.000000 0.000000 0.000000 -7.125000 0.000000 0.000000 -10.567288 55.269501 2.686078 0.000000 0.000000 0.000000 -5.151632 1.765535 20.702234 -13.305611 -21.733362 -2.565371 -20.686461 20.763022 1.420866 0.000000 0.000000 0.000000 7.125000 0.000000 0.000000 4.709921 31.477315 1.562098
-0.668921 18.903091 -11.906074 1.194519 -4.434372 1.312366 0.000000 0.000000 0.000000 -20.889310 -7.174469 4.091412 0.303530 3.542404 9.792616 -0.059364 13.125983 -17.916621 0.052174 -1.473701 -4.053175 0.000000 0.000000 0.000000 19.681106 22.072432 5.739321 -0.731585 -5.464751 15.238988 -0.169679 -11.605889 -18.684876 -0.044668 1.363815 -3.750382 -2.416816 0.234174 3.982717 -0.993414 0.176317 -0.024257 0.324670 0.109420 -2.262345 -9.128628 -5.654755 -8.500975 8.448067 -7.636546 13.223653 3.550463 -3.588128 6.073868 0.000000 0.000000 0.000000 2.192672 2.728516 -7.327524 11.109970 -18.456638 1.810604 19.703823 14.776725 -24.321471 0.000000 0.000000 0.000000 -7.125000 0.000000 0.000000 -10.427137 55.320618 2.662925 0.000000 0.000000 0.000000 -5.170871 1.688524 20.751673 -13.299179 -21.724022 -2.562966 -20.664538 20.726726 1.471927 0.000000 0.000000 0.000000 7.125000 0.000000 0.000000 4.730558 31.531284 1.562881
-0.669195 18.902531 -11.908539 1.210093 -4.400866 1.315041 0.000000 0.000000 0.000000 -20.897784 -7.169710 4.045692 0.305691 3.554684 9.826977 -0.062250 13.107915 -17.852861 0.056129 -1.528092 -4.203182 0.000000 0.000000 0.000000 19.663177 22.062381 5.720413 -0.733228 -5.470736 15.256239 -0.169716 -11.617886 -18.700304 -0.042893 1.336481 -3.675138 -2.440076 0.224984 4.027173 -0.988687 0.162660 0.023747 0.343376 0.102322 -2.237688 -9.112561 -5.567332 -8.646371 8.444399 -7.508905 13.262444 3.555418 -3.521759 6.098523 0.000000 0.000000 0.000000 2.176641 2.611320 -7.280025 11.102919 -18.445842 1.808382 19.700440 14.848314 -24.304318 0.000000 0.000000 0.000000 -7.125000 0.000000 0.000000 -10.423011 55.302560 2.657314 0.000000 0.000000 0.000000 -5.189873 1.619573 20.821927 -13.320531 -21.755077 -2.570897 -20.720513 20.673361 1.476049 0.000000 0.000000 0.000000 7.125000 0.000000 0.000000 4.686051 31.536655 1.547496
